<svg width="40" height="26" viewBox="0 0 40 26" fill="none" xmlns="http://www.w3.org/2000/svg">
<path fill-rule="evenodd" clip-rule="evenodd" d="M37.6947 3.29608C36.6995 1.46933 35.4199 0.425468 34.0455 0.283123C21.1548 -0.926804 4.70974 1.94381 1.3449 5.05166C-0.124262 6.40393 -0.384919 9.58295 0.539229 14.7785C1.17902 18.4083 2.17426 21.6585 2.19796 21.8008L2.41122 22.5126L6.51065 22.0618C6.84239 24.2919 8.76178 26 11.084 26C13.6195 26 15.7047 23.936 15.7047 21.3738C15.7047 21.2552 15.7047 21.1603 15.681 21.0417L25.3964 19.9266C25.3964 19.9504 25.3964 19.9978 25.3964 20.0215C25.3964 22.56 27.458 24.6477 30.0172 24.6477C32.5527 24.6477 34.6379 22.5837 34.6379 20.0215C34.6379 19.642 34.5905 19.2624 34.4957 18.9065L38.6426 18.432L38.8558 17.9813C40.5146 14.565 39.9459 7.42406 37.6947 3.29608ZM11.084 24.1732C9.54375 24.1732 8.28785 22.9159 8.28785 21.3738C8.28785 19.8317 9.54375 18.5744 11.084 18.5744C12.6242 18.5744 13.8801 19.8317 13.8801 21.3738C13.8801 22.9159 12.6242 24.1732 11.084 24.1732ZM29.9935 22.8447C28.4532 22.8447 27.1973 21.5873 27.1973 20.0453C27.1973 18.5032 28.4532 17.2458 29.9935 17.2458C31.5337 17.2458 32.7896 18.5032 32.7896 20.0453C32.7896 21.5873 31.5337 22.8447 29.9935 22.8447ZM37.3867 16.7476L33.619 17.1747C33.3346 16.7951 32.9792 16.4867 32.6001 16.2257C31.8655 15.7038 30.965 15.4191 29.9935 15.4191C28.5717 15.4191 27.2684 16.0833 26.4391 17.1035C26.1784 17.3882 25.9415 17.7203 25.7045 18.0762L15.1834 19.2624C15.0886 19.0726 14.9702 18.8828 14.8517 18.7167C14.828 18.693 14.828 18.6693 14.8043 18.6455C13.9512 17.5068 12.6005 16.7476 11.084 16.7476C9.89919 16.7476 8.83286 17.1984 8.0272 17.9101C7.34001 18.4795 6.8187 19.2624 6.51065 20.2113L3.71451 20.5197C2.22165 15.3242 0.942063 7.89855 2.57709 6.38021C4.82822 4.29249 16.3682 1.80146 27.6476 1.80146C29.7565 1.80146 31.8418 1.89636 33.8559 2.08615C34.6142 2.18105 35.4199 2.91649 36.1071 4.17387C37.9554 7.56641 38.5478 13.6872 37.3867 16.7476ZM6.72391 9.89137C6.62913 9.82019 6.48695 9.74902 6.29738 9.67785C6.10781 9.60668 5.89455 9.58295 5.65759 9.58295C5.37323 9.58295 5.13627 9.6304 4.92301 9.70157C4.73344 9.79647 4.56757 9.89137 4.42539 10.0337V13.7821H2.86145V8.23068L4.42539 8.13579V8.68144L4.92301 8.37303C5.08888 8.27813 5.25475 8.20696 5.46802 8.13579C5.68128 8.06461 5.84716 8.04089 6.03673 8.04089C6.22629 8.04089 6.36847 8.04089 6.46325 8.06461C6.58174 8.08834 6.65282 8.11206 6.72391 8.13579V9.89137ZM11.1788 10.5082C11.1077 10.0812 10.9418 9.77275 10.7049 9.55923C10.4679 9.34571 10.1835 9.25082 9.8281 9.25082C9.42527 9.25082 9.11722 9.36944 8.90395 9.60668C8.69069 9.84392 8.57221 10.1523 8.52482 10.5319H11.1788V10.5082ZM12.6479 11.2436H8.54851C8.6433 11.6944 8.80917 12.0265 9.06983 12.2163C9.33048 12.4061 9.66223 12.5247 10.0414 12.5247C10.3494 12.5247 10.6812 12.4773 11.0603 12.3824C11.4394 12.2875 11.7238 12.1689 11.9371 12.0265V13.4262C11.7238 13.5686 11.4394 13.6872 11.0129 13.7584C10.6101 13.8296 10.2783 13.877 10.0414 13.877C9.06983 13.877 8.28785 13.616 7.74284 13.0704C7.19783 12.5247 6.91348 11.813 6.91348 10.9115C6.91348 10.01 7.19783 9.27454 7.76654 8.72889C8.33525 8.18323 9.02243 7.89854 9.87549 7.89854C10.7286 7.89854 11.392 8.20696 11.8897 8.80006C12.3873 9.39316 12.6479 10.2235 12.6479 11.2436ZM17.1265 12.074V9.6304C17.0317 9.51178 16.8895 9.41689 16.7 9.34571C16.5104 9.27454 16.2971 9.22709 16.0602 9.22709C15.6336 9.22709 15.3019 9.34571 15.1123 9.60668C14.8991 9.86764 14.8043 10.271 14.8043 10.8166C14.8043 11.386 14.9228 11.7893 15.136 12.074C15.3493 12.3587 15.6573 12.4773 16.0365 12.4773C16.2734 12.4773 16.4867 12.4298 16.6763 12.3587C16.8658 12.2875 17.008 12.1926 17.1265 12.074ZM18.6667 13.7821H17.4819L17.1502 13.2602L16.3208 13.7109C16.2497 13.7584 16.155 13.7821 16.0128 13.8058C15.8706 13.8296 15.7758 13.8296 15.681 13.8296C14.8754 13.8296 14.2593 13.5686 13.8327 12.9992C13.4062 12.4536 13.1929 11.7656 13.1929 10.9352C13.1929 10.0337 13.4536 9.32199 13.9512 8.80006C14.4725 8.27813 15.136 8.01717 15.9654 8.01717C16.2024 8.01717 16.4156 8.04089 16.6052 8.06461C16.7948 8.11206 16.9606 8.15951 17.1265 8.27813V5.83455H18.6667V13.7821ZM23.9747 11.2674C23.9747 10.8641 23.8562 10.5556 23.6429 10.3658C23.4297 10.1761 23.1216 10.0812 22.7662 10.0812H21.6762V12.4536H22.9083C23.2638 12.4536 23.5481 12.3587 23.714 12.1452C23.8799 11.9554 23.9747 11.6469 23.9747 11.2674ZM23.6903 8.25441C23.6903 7.94599 23.5955 7.68503 23.406 7.49524C23.2164 7.30544 22.9557 7.21055 22.624 7.21055H21.6762V9.34571H22.7188C23.0268 9.34571 23.2638 9.25082 23.4297 9.06102C23.6192 8.84751 23.6903 8.58654 23.6903 8.25441ZM25.7282 11.4809C25.7282 12.1689 25.5149 12.7383 25.0647 13.1416C24.6145 13.5686 24.0458 13.7584 23.3586 13.7584H19.97V5.85828H23.2875C23.9036 5.85828 24.4249 6.02434 24.804 6.38021C25.2069 6.73607 25.3964 7.21055 25.3964 7.82737C25.3964 8.32558 25.278 8.70516 25.041 9.01358C24.804 9.32199 24.4486 9.48806 23.9747 9.55923C24.4486 9.6304 24.8514 9.84392 25.2069 10.1761C25.5623 10.5082 25.7282 10.9352 25.7282 11.4809ZM31.8892 13.7821H30.3252V13.1653L29.6617 13.5449C29.4722 13.6398 29.2826 13.7347 29.093 13.7821C28.9035 13.8296 28.6665 13.877 28.4532 13.877C27.9082 13.877 27.4817 13.7109 27.15 13.3788C26.8419 13.0467 26.676 12.5959 26.676 12.0265V8.25441H28.24V11.6707C28.24 11.8842 28.3111 12.0503 28.4532 12.2163C28.5954 12.3824 28.8324 12.4536 29.1167 12.4536C29.4011 12.4536 29.638 12.4061 29.8276 12.2875C30.0409 12.1689 30.1831 12.074 30.2778 11.9554V8.23068H31.8418V13.7821H31.8892ZM37.3393 11.8842C37.3393 12.4773 37.126 12.9755 36.6995 13.3551C36.2729 13.7109 35.7279 13.9007 35.0882 13.9007C34.7801 13.9007 34.4247 13.877 34.0218 13.8058C33.5953 13.7347 33.2398 13.616 32.9081 13.45V12.0503C33.1688 12.1926 33.4531 12.3112 33.7849 12.4298C34.1166 12.5247 34.472 12.5959 34.9223 12.5959C35.2303 12.5959 35.4673 12.5485 35.6569 12.4773C35.8464 12.3824 35.9412 12.24 35.9412 12.0028C35.9412 11.8605 35.8701 11.7181 35.7042 11.6232C35.5384 11.5283 35.2777 11.4572 34.8749 11.4334C34.164 11.386 33.6901 11.1962 33.4057 10.9115C33.1214 10.6268 32.9792 10.2472 32.9792 9.77275C32.9792 9.22709 33.1925 8.80006 33.619 8.4442C34.0455 8.08834 34.5905 7.92227 35.2066 7.92227C35.491 7.92227 35.7753 7.94599 36.0834 7.99344C36.3914 8.04089 36.6521 8.08834 36.889 8.18323V9.60668C36.6047 9.48806 36.344 9.39316 36.0834 9.34571C35.8227 9.29826 35.5147 9.25082 35.2066 9.25082C34.946 9.25082 34.7564 9.29826 34.6142 9.36944C34.472 9.46433 34.401 9.55923 34.401 9.65413C34.401 9.86764 34.4957 10.01 34.709 10.0574C34.8986 10.1286 35.1118 10.1761 35.3488 10.1761C36.0123 10.2235 36.5336 10.3896 36.8654 10.6743C37.1734 10.9827 37.3393 11.386 37.3393 11.8842Z" fill="#D84E55"/>
</svg>
